<svg width="40" height="30" viewBox="0 0 40 30" fill="none" xmlns="http://www.w3.org/2000/svg">
<path d="M25.2568 29.4919C24.8459 29.4919 24.435 29.3405 24.1106 29.0161C23.4835 28.389 23.4835 27.351 24.1106 26.7238L36.0912 14.7432L24.1106 2.76267C23.4835 2.13553 23.4835 1.0975 24.1106 0.470357C24.7378 -0.156786 25.7758 -0.156786 26.4029 0.470357L39.5297 13.5971C40.1568 14.2242 40.1568 15.2622 39.5297 15.8894L26.4029 29.0161C26.0785 29.3405 25.6677 29.4919 25.2568 29.4919Z" fill="#292D32"/>
<path d="M38.0178 16.3649H1.62192C0.735271 16.3649 0 15.6297 0 14.743C0 13.8564 0.735271 13.1211 1.62192 13.1211H38.0178C38.9045 13.1211 39.6398 13.8564 39.6398 14.743C39.6398 15.6297 38.9045 16.3649 38.0178 16.3649Z" fill="#292D32"/>
</svg>
