<svg width="19" height="23" viewBox="0 0 19 23" fill="none" xmlns="http://www.w3.org/2000/svg">
<g id="&#240;&#159;&#166;&#134; icon &#34;mp4&#34;">
<g id="Group">
<path id="Vector" fill-rule="evenodd" clip-rule="evenodd" d="M2.44605 0.574829C1.54465 0.574829 0.813812 1.35082 0.813812 2.30783V20.6969C0.813812 21.6543 1.54465 22.4299 2.44605 22.4299H17.1771C18.0785 22.4299 18.8099 21.6543 18.8099 20.6969V7.5116L12.7267 0.574829H2.44605Z" fill="#9B64B2"/>
<path id="Vector_2" fill-rule="evenodd" clip-rule="evenodd" d="M18.8138 7.52082V7.86236H14.6949C14.6949 7.86236 12.6636 7.43202 12.7225 5.57162C12.7225 5.57162 12.7895 7.52082 14.6547 7.52082H18.8138Z" fill="#824B9E"/>
<path id="Vector_3" opacity="0.5" fill-rule="evenodd" clip-rule="evenodd" d="M12.7306 0.570312V5.54354C12.7306 6.10914 13.0858 7.52143 14.6949 7.52143H18.8138L12.7306 0.570312Z" fill="white"/>
</g>
<path id="Vector_4" d="M7.59955 18.9725C7.46632 18.9725 7.36205 18.8619 7.36205 18.7205V15.5598L6.06418 18.8929C6.0468 18.9421 6.00046 18.9725 5.94253 18.9725C5.89619 18.9725 5.84985 18.9418 5.83247 18.8929L4.54039 15.5598V18.7205C4.54039 18.8619 4.43612 18.9725 4.2971 18.9725C4.16387 18.9725 4.0596 18.8619 4.0596 18.7205V15.2152C4.0596 14.9939 4.23917 14.8033 4.45962 14.8033C4.61602 14.8033 4.77821 14.9017 4.84193 15.0615L5.94865 17.9209L7.06116 15.0615C7.12488 14.9017 7.28128 14.8033 7.44347 14.8033C7.66359 14.8033 7.84349 14.9939 7.84349 15.2152V18.7205C7.84284 18.8619 7.73857 18.9725 7.59955 18.9725ZM10.4431 17.3061H9.37114V18.7205C9.37114 18.8619 9.26687 18.9725 9.12784 18.9725C8.99461 18.9725 8.89035 18.8619 8.89035 18.7205V15.2029C8.89035 15 9.04675 14.8337 9.23823 14.8337H10.4434C11.22 14.8337 11.6544 15.3996 11.6544 16.0697C11.6541 16.7405 11.208 17.3061 10.4431 17.3061ZM10.3852 15.289H9.37114V16.8509H10.3852C10.8428 16.8509 11.1559 16.5312 11.1559 16.0697C11.1559 15.609 10.8428 15.289 10.3852 15.289ZM14.8632 17.8967H14.4867V18.7208C14.4867 18.8622 14.3824 18.9729 14.2431 18.9729C14.1098 18.9729 14.0056 18.8622 14.0056 18.7208V17.8967H12.3717C12.2501 17.8967 12.1342 17.786 12.1342 17.62C12.1342 17.5647 12.1513 17.5032 12.1806 17.454L13.7275 14.9881C13.8028 14.8713 13.9361 14.7975 14.0754 14.7975C14.2955 14.7975 14.4867 15.0004 14.4867 15.2278V17.4479H14.8632C14.9733 17.4479 15.0659 17.5462 15.0659 17.6757C15.0659 17.798 14.9729 17.8967 14.8632 17.8967ZM14.0056 15.3074L12.6498 17.4475H14.0056V15.3074Z" fill="white"/>
</g>
</svg>
