<svg width="49" height="42" viewBox="0 0 49 42" fill="none" xmlns="http://www.w3.org/2000/svg">
<path d="M33.6988 22.4651H15.6766C14.753 22.4651 13.9871 21.8009 13.9871 21C13.9871 20.1991 14.753 19.5349 15.6766 19.5349H33.6988C34.6224 19.5349 35.3883 20.1991 35.3883 21C35.3883 21.8009 34.6224 22.4651 33.6988 22.4651Z" fill="url(#paint0_linear_21320_251)"/>
<path d="M24.6877 30.2791C23.764 30.2791 22.9981 29.6149 22.9981 28.814V13.1861C22.9981 12.3851 23.764 11.7209 24.6877 11.7209C25.6113 11.7209 26.3773 12.3851 26.3773 13.1861V28.814C26.3773 29.6149 25.6113 30.2791 24.6877 30.2791Z" fill="url(#paint1_linear_21320_251)"/>
<path d="M31.446 42H17.9294C5.69688 42 0.470459 37.4679 0.470459 26.8605V15.1395C0.470459 4.53209 5.69688 0 17.9294 0H31.446C43.6785 0 48.905 4.53209 48.905 15.1395V26.8605C48.905 37.4679 43.6785 42 31.446 42ZM17.9294 2.93023C7.54415 2.93023 3.84961 6.13395 3.84961 15.1395V26.8605C3.84961 35.866 7.54415 39.0698 17.9294 39.0698H31.446C41.8313 39.0698 45.5258 35.866 45.5258 26.8605V15.1395C45.5258 6.13395 41.8313 2.93023 31.446 2.93023H17.9294Z" fill="url(#paint2_linear_21320_251)"/>
<defs>
<linearGradient id="paint0_linear_21320_251" x1="24.6877" y1="19.5349" x2="24.6877" y2="22.4651" gradientUnits="userSpaceOnUse">
<stop stop-color="#9937E7"/>
<stop offset="1" stop-color="#4EBEC5"/>
</linearGradient>
<linearGradient id="paint1_linear_21320_251" x1="24.6877" y1="11.7209" x2="24.6877" y2="30.2791" gradientUnits="userSpaceOnUse">
<stop stop-color="#9937E7"/>
<stop offset="1" stop-color="#4EBEC5"/>
</linearGradient>
<linearGradient id="paint2_linear_21320_251" x1="24.6877" y1="0" x2="24.6877" y2="42" gradientUnits="userSpaceOnUse">
<stop stop-color="#9937E7"/>
<stop offset="1" stop-color="#4EBEC5"/>
</linearGradient>
</defs>
</svg>
